# xmcd
#
# Track frame offsets: 
#        150
#        24965
#        45244
#        62818
#        85000
#        102002
#        127900
#        145650
#        166996
#
# Disc length: 2410 seconds
#
# Revision: 0
# Processed by: cddbd v1.5.2PL0 Copyright (c) Steve Scherf et al.
# Submitted via: ExactAudioCopy v1.0b4
#
DISCID=60096809
DTITLE=Blinddog Smokin' - High Steppin'
DYEAR=2015
DGENRE=Blues, Blues Rock
TTITLE0=Pimp Shoes
TTITLE1=Bayou Lady
TTITLE2=Don't Put No Money on Me
TTITLE3=I Caught Her Lyin'
TTITLE4=Tell 'Em Shuffle
TTITLE5=If I Died Today
TTITLE6=Big Behind
TTITLE7=Lady's Playin'
TTITLE8=Tell 'Em Reprise
EXTD=
EXTT0=
EXTT1=
EXTT2=
EXTT3=
EXTT4=
EXTT5=
EXTT6=
EXTT7=
EXTT8=
PLAYORDER=
